<svg xmlns="http://www.w3.org/2000/svg" width="71" height="82" fill="none" viewBox="0 0 71 82"><g fill="#3056d3"><circle cx="1.293" cy="80.707" r="1.293" transform="matrix(0 -1 1 0 -79.41323 81.99997)"/><circle cx="12.675" cy="80.707" r="1.293" transform="matrix(0 -1 1 0 -68.032 93.3812)"/><circle cx="24.057" cy="80.707" r="1.293" transform="matrix(0 -1 1 0 -56.6493 104.7639)"/><circle cx="35.438" cy="80.707" r="1.293" transform="matrix(0 -1 1 0 -45.2689 116.1443)"/><circle cx="46.82" cy="80.707" r="1.293" transform="matrix(0 -1 1 0 -33.8869 127.5263)"/><circle cx="68.807" cy="80.707" r="1.293" transform="matrix(0 -1 1 0 -11.8994 149.5138)"/><circle cx="57.944" cy="80.707" r="1.293" transform="matrix(0 -1 1 0 -22.7625 138.6507)"/><circle cx="1.293" cy="69.325" r="1.293" transform="matrix(0 -1 1 0 -68.03143 70.61817)"/><circle cx="12.675" cy="69.325" r="1.293" transform="matrix(0 -1 1 0 -56.6502 81.9994)"/><circle cx="24.057" cy="69.325" r="1.293" transform="matrix(0 -1 1 0 -45.2675 93.3821)"/><circle cx="35.438" cy="69.325" r="1.293" transform="matrix(0 -1 1 0 -33.8871 104.7625)"/><circle cx="46.82" cy="69.325" r="1.293" transform="matrix(0 -1 1 0 -22.5056 116.145)"/><circle cx="68.807" cy="69.325" r="1.293" transform="matrix(0 -1 1 0 -.5181 138.1325)"/><circle cx="57.943" cy="69.325" r="1.293" transform="matrix(0 -1 1 0 -11.3819 127.2687)"/><circle cx="1.293" cy="57.943" r="1.293" transform="matrix(0 -1 1 0 -56.65003 59.23677)"/><circle cx="1.293" cy="24.057" r="1.293" transform="matrix(0 -1 1 0 -22.76333 25.35007)"/><circle cx="12.675" cy="57.943" r="1.293" transform="matrix(0 -1 1 0 -45.2688 70.618)"/><circle cx="12.675" cy="24.057" r="1.293" transform="matrix(0 -1 1 0 -11.3821 36.7313)"/><circle cx="24.057" cy="57.943" r="1.293" transform="matrix(0 -1 1 0 -33.8861 82.0007)"/><circle cx="24.057" cy="24.057" r="1.293" transform="matrix(0 -1 1 0 .0006 48.114)"/><circle cx="35.438" cy="57.943" r="1.293" transform="matrix(0 -1 1 0 -22.5057 93.3811)"/><circle cx="35.438" cy="24.057" r="1.293" transform="matrix(0 -1 1 0 11.381 59.4944)"/><circle cx="46.82" cy="57.943" r="1.293" transform="matrix(0 -1 1 0 -11.1233 104.7627)"/><circle cx="46.82" cy="24.057" r="1.293" transform="matrix(0 -1 1 0 22.763 70.8764)"/><circle cx="68.807" cy="57.943" r="1.293" transform="matrix(0 -1 1 0 10.8642 126.7502)"/><circle cx="68.807" cy="24.057" r="1.293" transform="matrix(0 -1 1 0 44.7505 92.8639)"/><circle cx="57.943" cy="57.943" r="1.293" transform="matrix(0 -1 1 0 .0004 115.8864)"/><circle cx="57.944" cy="24.057" r="1.293" transform="matrix(0 -1 1 0 33.8874 82.0008)"/><circle cx="1.293" cy="46.562" r="1.293" transform="matrix(0 -1 1 0 -45.26823 47.85497)"/><circle cx="1.293" cy="12.675" r="1.293" transform="matrix(0 -1 1 0 -11.38173 13.96847)"/><circle cx="12.675" cy="46.562" r="1.293" transform="matrix(0 -1 1 0 -33.887 59.2362)"/><circle cx="12.675" cy="12.675" r="1.293" transform="matrix(0 -1 1 0 -.0005 25.3497)"/><circle cx="24.057" cy="46.562" r="1.293" transform="matrix(0 -1 1 0 -22.5043 70.6189)"/><circle cx="24.057" cy="12.675" r="1.293" transform="matrix(0 -1 1 0 11.3822 36.7324)"/><circle cx="35.438" cy="46.562" r="1.293" transform="matrix(0 -1 1 0 -11.1239 81.9993)"/><circle cx="35.438" cy="12.675" r="1.293" transform="matrix(0 -1 1 0 22.7626 48.1128)"/><circle cx="46.82" cy="46.562" r="1.293" transform="matrix(0 -1 1 0 .2581 93.3813)"/><circle cx="46.82" cy="12.675" r="1.293" transform="matrix(0 -1 1 0 34.1446 59.4948)"/><circle cx="68.807" cy="46.562" r="1.293" transform="matrix(0 -1 1 0 22.2456 115.3688)"/><circle cx="68.807" cy="12.675" r="1.293" transform="matrix(0 -1 1 0 56.1321 81.4823)"/><circle cx="57.943" cy="46.562" r="1.293" transform="matrix(0 -1 1 0 11.3818 104.505)"/><circle cx="57.944" cy="12.675" r="1.293" transform="matrix(0 -1 1 0 45.269 70.6192)"/><circle cx="1.293" cy="35.18" r="1.293" transform="matrix(0 -1 1 0 -33.88643 36.47317)"/><circle cx="1.293" cy="1.293" r="1.293" transform="matrix(0 -1 1 0 .00007 2.58667)"/><circle cx="12.675" cy="35.18" r="1.293" transform="matrix(0 -1 1 0 -22.5052 47.8544)"/><circle cx="12.675" cy="1.293" r="1.293" transform="matrix(0 -1 1 0 11.3813 13.9679)"/><circle cx="24.057" cy="35.18" r="1.293" transform="matrix(0 -1 1 0 -11.1225 59.2371)"/><circle cx="24.057" cy="1.293" r="1.293" transform="matrix(0 -1 1 0 22.764 25.3506)"/><circle cx="35.438" cy="35.18" r="1.293" transform="matrix(0 -1 1 0 .2579 70.6175)"/><circle cx="35.438" cy="1.293" r="1.293" transform="matrix(0 -1 1 0 34.1444 36.731)"/><circle cx="46.82" cy="35.18" r="1.293" transform="matrix(0 -1 1 0 11.6397 81.9997)"/><circle cx="46.82" cy="1.294" r="1.293" transform="matrix(0 -1 1 0 45.52616 48.11324)"/><circle cx="68.807" cy="35.18" r="1.293" transform="matrix(0 -1 1 0 33.6272 103.9872)"/><circle cx="68.807" cy="1.294" r="1.293" transform="matrix(0 -1 1 0 67.51366 70.10074)"/><circle cx="57.944" cy="35.18" r="1.293" transform="matrix(0 -1 1 0 22.7641 93.1241)"/><circle cx="57.944" cy="1.294" r="1.293" transform="matrix(0 -1 1 0 56.65056 59.23764)"/></g></svg>